<?xml version="1.0" encoding="UTF-8"?>
<svg id="Layer_2" data-name="Layer 2" xmlns="http://www.w3.org/2000/svg" viewBox="0 0 12 10.5">
  <g id="Layer_1-2" data-name="Layer 1">
    <path d="m2.25,1.5c-.42,0-.75.33-.75.75v6c0,.42.33.75.75.75h1.5c.42,0,.75.33.75.75s-.33.75-.75.75h-1.5c-1.24,0-2.25-1.01-2.25-2.25V2.25C0,1.01,1.01,0,2.25,0h1.5c.42,0,.75.33.75.75s-.33.75-.75.75h-1.5Zm9.53,4.28l-3,3c-.29.29-.77.29-1.06,0s-.29-.77,0-1.06l1.72-1.72h-4.94c-.42,0-.75-.33-.75-.75s.33-.75.75-.75h4.94l-1.72-1.72c-.29-.29-.29-.77,0-1.06s.77-.29,1.06,0l3,3c.29.29.29.77,0,1.06h0Z"/>
  </g>
</svg>