<?xml version="1.0" encoding="UTF-8"?>
<svg id="Layer_2" data-name="Layer 2" xmlns="http://www.w3.org/2000/svg" viewBox="0 0 10.5 12">
  <g id="Layer_1-2" data-name="Layer 1">
    <path d="m6,.75v.45c1.71.35,3,1.86,3,3.67v.44c0,1.1.41,2.17,1.14,2.99l.17.19c.2.22.25.54.12.81s-.39.44-.68.44H.75c-.29,0-.56-.17-.68-.44-.12-.27-.07-.59.12-.81l.17-.19c.73-.82,1.14-1.89,1.14-2.99v-.44c0-1.81,1.29-3.33,3-3.67v-.45c0-.42.33-.75.75-.75s.75.33.75.75Zm-.75,11.25c-.4,0-.78-.16-1.06-.44s-.44-.66-.44-1.06h3c0,.4-.16.78-.44,1.06s-.66.44-1.06.44Z"/>
  </g>
</svg>